<?xml version="1.0" standalone="no"?><!DOCTYPE svg PUBLIC "-//W3C//DTD SVG 1.1//EN" "http://www.w3.org/Graphics/SVG/1.1/DTD/svg11.dtd"><svg t="1712142509258" class="icon" viewBox="0 0 1024 1024" version="1.1" xmlns="http://www.w3.org/2000/svg" p-id="5394" xmlns:xlink="http://www.w3.org/1999/xlink" width="200" height="200"><path d="M81.188571 548.571429m106.252191 0l179.346286 0q106.25219 0 106.25219 106.25219l0 179.346286q0 106.25219-106.25219 106.25219l-179.346286 0q-106.25219 0-106.252191-106.25219l0-179.346286q0-106.25219 106.252191-106.25219Z" fill="#3EC1D3" p-id="5395"></path><path d="M81.188571 88.795429m94.744381 0l202.361905 0q94.744381 0 94.744381 94.744381l0 202.361904q0 94.744381-94.744381 94.744381l-202.361905 0q-94.744381 0-94.744381-94.744381l0-202.361904q0-94.744381 94.744381-94.744381Z" fill="#3EC1D3" p-id="5396"></path><path d="M542.329905 547.888762m81.871238 0l228.10819 0q81.871238 0 81.871238 81.871238l0 228.10819q0 81.871238-81.871238 81.871239l-228.10819 0q-81.871238 0-81.871238-81.871239l0-228.10819q0-81.871238 81.871238-81.871238Z" fill="#3EC1D3" p-id="5397"></path><path d="M542.329905 82.895238m195.925333 0l0 0q195.925333 0 195.925333 195.925333l0 0q0 195.925333-195.925333 195.925334l0 0q-195.925333 0-195.925333-195.925334l0 0q0-195.925333 195.925333-195.925333Z" fill="#F6F7D7" p-id="5398"></path></svg>