<?xml version="1.0" standalone="no"?><!DOCTYPE svg PUBLIC "-//W3C//DTD SVG 1.1//EN" "http://www.w3.org/Graphics/SVG/1.1/DTD/svg11.dtd"><svg t="1712142135138" class="icon" viewBox="0 0 1024 1024" version="1.1" xmlns="http://www.w3.org/2000/svg" p-id="4328" xmlns:xlink="http://www.w3.org/1999/xlink" width="200" height="200"><path d="M252.003861 674.258077c17.471597-17.485074 31.757963-51.983504 31.757963-76.692628V421.847639c0-24.709124 20.216556-44.92568 44.925679-44.92568h434.682906c24.709124 0 44.92568-20.216556 44.925679-44.925679V113.437341c0-24.709124-20.216556-44.92568-44.925679-44.92568H82.957514c-24.709124 0-44.92568 20.216556-44.92568 44.92568v408.244143c0 24.709124 20.216556 44.92568 44.92568 44.92568h24.12509c24.709124 0 44.92568 20.216556 44.925679 44.925679v117.799625c0 24.709124 14.304336 30.630328 31.766948 13.158731l68.22863-68.233122z" fill="#4E6070" p-id="4329"></path><path d="M351.029044 800.324026c0 24.709124 20.216556 44.92568 44.925679 44.92568h279.271502c24.709124 0 59.230016 14.304336 76.692628 31.766948l107.318463 107.309478c17.485074 17.480582 31.766948 11.550392 31.766948-13.158731v-80.992015c0-24.709124 20.216556-44.92568 44.92568-44.92568h3.917519c24.709124 0 44.92568-20.216556 44.92568-44.92568v-319.965182c0-24.709124-20.216556-44.92568-44.92568-44.92568H395.954723c-24.709124 0-44.92568 20.216556-44.925679 44.92568v319.965182z" fill="#00CCC6" p-id="4330"></path></svg>